<?xml version="1.0" encoding="utf-8"?>
<!-- Svg Vector Icons : http://www.onlinewebfonts.com/icon -->
<!DOCTYPE svg PUBLIC "-//W3C//DTD SVG 1.1//EN" "http://www.w3.org/Graphics/SVG/1.1/DTD/svg11.dtd">
<svg version="1.1" xmlns="http://www.w3.org/2000/svg" xmlns:xlink="http://www.w3.org/1999/xlink" x="0px" y="0px" viewBox="0 0 1000 1000" enable-background="new 0 0 1000 1000" xml:space="preserve">
<metadata> Svg Vector Icons : http://www.onlinewebfonts.com/icon </metadata>
<g><path d="M241.7,364.5c-31.3,0-56.8,24.3-56.8,54.2c0,30,25.4,54.2,56.8,54.2c31.3,0,56.7-24.2,56.7-54.2C298.4,388.8,273,364.5,241.7,364.5z M440.3,364.5c-31.3,0-56.7,24.3-56.7,54.2c0,30,25.4,54.2,56.7,54.2c31.3,0,56.7-24.2,56.7-54.2C497,388.8,471.6,364.5,440.3,364.5z M875.1,405.2c0-231.1-193.6-366.1-432.5-366.1C203.7,39.1,10,174.1,10,405.2c0,198.4,142.7,326,334.2,358.2l82,82.3c8.8,8.9,23.2,8.9,32.1,0l81.9-82.1C732,731.5,875.1,603.9,875.1,405.2z M442.6,789.1l-76.5-76.7l0.9-0.8C194.2,685.8,64.1,572.2,64.1,418.8c0-209.7,169.5-325.4,378.5-325.4c209,0,378.5,115.8,378.5,325.4c0,156.2-130,267.7-302.8,292.9l0.8,0.7L442.6,789.1z M923.9,475.2c-3.5,21.7-8.8,43.2-15.6,64.1c21.2,29.3,33.9,64.7,33.9,105.2c0,109.2-92.3,181.1-195.2,197.3l-47.5,49.3L652.1,841l0.3-0.2c-20.9-3.7-41.2-9.8-60.4-17.9c-13.6,1.8-27.4,2.7-41.4,2.7c-19.2,0-38.2-1.7-56.6-5.1c31.3,27.1,70.4,46.8,114.3,58.2l78.8,77.3c6.6,6.5,17.4,6.5,24.1,0l76.4-75C904.8,854,990,769.5,990,641.9C990,573,965.2,516.7,923.9,475.2z M638.8,473c31.3,0,56.8-24.2,56.8-54.2c0-29.9-25.4-54.2-56.8-54.2c-31.3,0-56.7,24.3-56.7,54.2C582.1,448.8,607.5,473,638.8,473z"/></g>
</svg>